<svg xmlns="http://www.w3.org/2000/svg" viewBox="0 0 200 200">
  <defs>
    <style>
      .cls-1 {
        fill: #fff;
      }
      .cls-1, .cls-2, .cls-3, .cls-4, .cls-5 {
        stroke: #231f20;
        stroke-linecap: round;
        stroke-linejoin: round;
        stroke-width: 1.5px;
      }
      .cls-2 {
        fill: #e8b9c3;
      }
      .cls-3 {
        fill: #b3e0e5;
      }
      .cls-4 {
        fill: #f5d1d8;
      }
      .cls-5 {
        fill: none;
      }
    </style>
  </defs>
  <g id="character">
    <path class="cls-2" d="M128.4,79.18c-3.15-20.67-12.28-31.41-28.4-31.41s-25.25,10.74-28.4,31.41c-2.8,18.35,5.1,28.23,5.1,28.23Z"/>
    <path class="cls-3" d="M141.51,123.51c0,6.29-5.1,11.39-11.39,11.39H70.88c-6.29,0-11.39-5.1-11.39-11.39V93.39h82Z"/>
    <path class="cls-4" d="M96.7,93.39v24.64H80.59V93.39Z"/>
    <path class="cls-5" d="M80.59,93.39c0,11.05-8.95,20-20,20"/>
    <path class="cls-3" d="M141.51,102.34c-11.05,0-20-8.95-20-20"/>
    <path class="cls-5" d="M128.4,79.18c-3.15-20.67-12.28-31.41-28.4-31.41s-25.25,10.74-28.4,31.41"/>
    <path class="cls-2" d="M103.3,107.41h-5.6c-1.1,0-2-1.12-2-2.5V93.39h9.6v11.52c0,1.38-.9,2.5-2,2.5Z"/>
    <path class="cls-5" d="M100,64.29c-5.8,0-10.8,3-13.7,7.5"/>
    <path class="cls-5" d="M113.7,71.79c-2.9-4.5-7.9-7.5-13.7-7.5"/>
    <path class="cls-5" d="M117.8,84.19A19.8,19.8,0,0,0,120,76.49"/>
    <path class="cls-5" d="M82.2,84.19A19.8,19.8,0,0,1,80,76.49"/>
    <path class="cls-5" d="M112.5,90.49c0-6.9-5.6-12.5-12.5-12.5s-12.5,5.6-12.5,12.5"/>
    <path class="cls-5" d="M93,90.49a7,7,0,0,1,7-7,7,7,0,0,1,7,7"/>
    <path class="cls-5" d="M110,87.49a1.5,1.5,0,0,1-3,0"/>
    <path class="cls-5" d="M93,87.49a1.5,1.5,0,0,1-3,0"/>
    <path class="cls-5" d="M100,97.49a2,2,0,0,0,2-2h-4a2,2,0,0,0,2,2Z"/>
    <path class="cls-5" d="M121.51,93.39h20v30.12c0,6.29-5.1,11.39-11.39,11.39"/>
    <path class="cls-5" d="M79.59,93.39H59.49v30.12c0,6.29,5.1,11.39,11.39,11.39"/>
    <path class="cls-5" d="M121.51,113.39c-5,5-12,5-17,0"/>
    <path class="cls-5" d="M79.59,113.39c5,5,12,5,17,0"/>
    <path class="cls-5" d="M141.51,123.51V93.39"/>
    <path class="cls-5" d="M80.59,118.03V93.39"/>
    <path class="cls-5" d="M96.7,118.03V93.39"/>
    <path class="cls-5" d="M121.51,93.39h-24.81"/>
    <path class="cls-5" d="M100,47.77c-16.12,0-25.25,10.74-28.4,31.41"/>
    <path class="cls-5" d="M100,47.77c16.12,0,25.25,10.74,28.4,31.41"/>
    <g id="speech-bubble">
      <path class="cls-1" d="M136.25,110.12a27.13,27.13,0,0,1-27,21.8,28.37,28.37,0,0,1-18.49-6.38,1.4,1.4,0,0,0-1.61-.1l-9.59,4.8-1.5-10.23a1.4,1.4,0,0,0-.73-1.16A27.14,27.14,0,1,1,136.25,110.12Z"/>
      <circle class="cls-5" cx="87.75" cy="110.25" r="3.25"/>
      <circle class="cls-5" cx="100.25" cy="110.25" r="3.25"/>
      <circle class="cls-5" cx="112.75" cy="110.25" r="3.25"/>
    </g>
  </g>
</svg>
